<svg width="106" height="106" viewBox="0 0 106 106" fill="none" xmlns="http://www.w3.org/2000/svg">
<circle cx="53" cy="53" r="49" fill="#E8F5E8" stroke="#27963C" stroke-width="8"/>
<path d="M62 50C62 47.6131 61.0518 45.3239 59.364 43.636C57.6761 41.9482 55.3869 41 53 41C50.6131 41 48.3239 41.9482 46.636 43.636C44.9482 45.3239 44 47.6131 44 50C44 53.692 46.954 58.504 53 64.268C59.046 58.504 62 53.692 62 50ZM53 67C45.666 60.334 42 54.666 42 50C42 47.0826 43.1589 44.2847 45.2218 42.2218C47.2847 40.1589 50.0826 39 53 39C55.9174 39 58.7153 40.1589 60.7782 42.2218C62.8411 44.2847 64 47.0826 64 50C64 54.666 60.334 60.334 53 67Z" fill="#27963C"/>
<path d="M53 53C53.7956 53 54.5587 52.6839 55.1213 52.1213C55.6839 51.5587 56 50.7956 56 50C56 49.2044 55.6839 48.4413 55.1213 47.8787C54.5587 47.3161 53.7956 47 53 47C52.2044 47 51.4413 47.3161 50.8787 47.8787C50.3161 48.4413 50 49.2044 50 50C50 50.7956 50.3161 51.5587 50.8787 52.1213C51.4413 52.6839 52.2044 53 53 53ZM53 55C51.6739 55 50.4021 54.4732 49.4645 53.5355C48.5268 52.5979 48 51.3261 48 50C48 48.6739 48.5268 47.4021 49.4645 46.4645C50.4021 45.5268 51.6739 45 53 45C54.3261 45 55.5979 45.5268 56.5355 46.4645C57.4732 47.4021 58 48.6739 58 50C58 51.3261 57.4732 52.5979 56.5355 53.5355C55.5979 54.4732 54.3261 55 53 55Z" fill="#27963C"/>
</svg>
