<svg width="106" height="106" viewBox="0 0 106 106" fill="none" xmlns="http://www.w3.org/2000/svg">
<circle cx="53" cy="53" r="49" fill="#E8F5E8" stroke="#27963C" stroke-width="8"/>
<path d="M64.7963 56.8075L58.9075 54.1687L58.8913 54.1612C58.5856 54.0305 58.2521 53.978 57.921 54.0086C57.5899 54.0391 57.2716 54.1517 56.995 54.3362C56.9624 54.3577 56.9311 54.3811 56.9013 54.4062L53.8588 57C51.9313 56.0637 49.9413 54.0887 49.005 52.1862L51.6025 49.0975C51.6275 49.0662 51.6513 49.035 51.6738 49.0012C51.8543 48.7254 51.9638 48.4091 51.9926 48.0807C52.0214 47.7523 51.9686 47.4218 51.8388 47.1187V47.1037L49.1925 41.205C49.0209 40.8091 48.7259 40.4793 48.3515 40.2648C47.9771 40.0503 47.5433 39.9627 47.115 40.015C45.4212 40.2379 43.8665 41.0697 42.7412 42.3551C41.6159 43.6405 40.9969 45.2916 41 47C41 56.925 49.075 65 59 65C60.7084 65.0031 62.3595 64.3841 63.6449 63.2588C64.9303 62.1335 65.7621 60.5788 65.985 58.885C66.0374 58.4568 65.95 58.0232 65.7357 57.6488C65.5215 57.2744 65.1919 56.9793 64.7963 56.8075ZM59 63C54.758 62.9954 50.691 61.3082 47.6914 58.3086C44.6918 55.309 43.0046 51.242 43 47C42.9953 45.7794 43.4351 44.5987 44.2372 43.6786C45.0393 42.7585 46.1489 42.1618 47.3588 42C47.3583 42.005 47.3583 42.01 47.3588 42.015L49.9838 47.89L47.4 50.9825C47.3737 51.0126 47.3499 51.0448 47.3288 51.0787C47.1407 51.3674 47.0303 51.6997 47.0084 52.0436C46.9865 52.3874 47.0538 52.7311 47.2038 53.0412C48.3363 55.3575 50.67 57.6737 53.0113 58.805C53.3237 58.9536 53.6694 59.0185 54.0144 58.9935C54.3595 58.9686 54.6922 58.8545 54.98 58.6625C55.0122 58.641 55.0431 58.6176 55.0725 58.5925L58.1113 56L63.9863 58.6312H64C63.8402 59.8428 63.2444 60.9547 62.3241 61.7588C61.4038 62.5628 60.2221 63.0041 59 63Z" fill="#27963C"/>
</svg>
