<svg width="80" height="80" viewBox="0 0 80 80" fill="none" xmlns="http://www.w3.org/2000/svg">
<circle cx="40" cy="40" r="40" fill="white"/>
<path d="M53 33V47C53 47.5304 52.7893 48.0391 52.4142 48.4142C52.0391 48.7893 51.5304 49 51 49H29C28.4696 49 27.9609 48.7893 27.5858 48.4142C27.2107 48.0391 27 47.5304 27 47V33M53 33C53 32.4696 52.7893 31.9609 52.4142 31.5858C52.0391 31.2107 51.5304 31 51 31H29C28.4696 31 27.9609 31.2107 27.5858 31.5858C27.2107 31.9609 27 32.4696 27 33M53 33L41.138 41.212C40.8036 41.4434 40.4066 41.5673 40 41.5673C39.5934 41.5673 39.1964 41.4434 38.862 41.212L27 33" stroke="#27963C" stroke-width="2" stroke-linecap="round" stroke-linejoin="round"/>
</svg>
