<svg width="106" height="106" viewBox="0 0 106 106" fill="none" xmlns="http://www.w3.org/2000/svg">
<circle cx="53" cy="53" r="49" fill="#E8F5E8" stroke="#27963C" stroke-width="8"/>
<path d="M43.8337 42.3333C42.7286 42.3333 41.6688 42.7723 40.8874 43.5537C40.106 44.3351 39.667 45.3949 39.667 46.5V59.5C39.667 60.6051 40.106 61.6649 40.8874 62.4463C41.6688 63.2277 42.7286 63.6667 43.8337 63.6667H62.167C63.2721 63.6667 64.3319 63.2277 65.1133 62.4463C65.8947 61.6649 66.3337 60.6051 66.3337 59.5V46.5C66.3337 45.3949 65.8947 44.3351 65.1133 43.5537C64.3319 42.7723 63.2721 42.3333 62.167 42.3333H43.8337ZM41.3337 46.5C41.3337 45.837 41.5971 45.2011 42.0659 44.7322C42.5347 44.2634 43.1706 44 43.8337 44H62.167C62.83 44 63.4659 44.2634 63.9348 44.7322C64.4036 45.2011 64.667 45.837 64.667 46.5V47.0933L53.0017 53.2333L41.3337 47.042V46.5ZM41.3337 48.9293L52.6097 54.912C52.7295 54.9756 52.8631 55.009 52.9988 55.0092C53.1345 55.0094 53.2682 54.9765 53.3883 54.9133L64.667 48.9767V59.5C64.667 60.163 64.4036 60.7989 63.9348 61.2678C63.4659 61.7366 62.83 62 62.167 62H43.8337C43.1706 62 42.5347 61.7366 42.0659 61.2678C41.5971 60.7989 41.3337 60.163 41.3337 59.5V48.9293Z" fill="#27963C"/>
</svg>
