<svg width="32" height="32" viewBox="0 0 32 32" fill="none" xmlns="http://www.w3.org/2000/svg">
<rect x="0.5" y="0.5" width="31" height="31" fill="#202220" stroke="#74787C"/>
<path d="M12.64 8H19.36C21.92 8 24 10.08 24 12.64V19.36C24 20.5906 23.5111 21.7708 22.641 22.641C21.7708 23.5111 20.5906 24 19.36 24H12.64C10.08 24 8 21.92 8 19.36V12.64C8 11.4094 8.48886 10.2292 9.35902 9.35902C10.2292 8.48886 11.4094 8 12.64 8ZM12.48 9.6C11.7162 9.6 10.9836 9.90343 10.4435 10.4435C9.90343 10.9836 9.6 11.7162 9.6 12.48V19.52C9.6 21.112 10.888 22.4 12.48 22.4H19.52C20.2838 22.4 21.0164 22.0966 21.5565 21.5565C22.0966 21.0164 22.4 20.2838 22.4 19.52V12.48C22.4 10.888 21.112 9.6 19.52 9.6H12.48ZM20.2 10.8C20.4652 10.8 20.7196 10.9054 20.9071 11.0929C21.0946 11.2804 21.2 11.5348 21.2 11.8C21.2 12.0652 21.0946 12.3196 20.9071 12.5071C20.7196 12.6946 20.4652 12.8 20.2 12.8C19.9348 12.8 19.6804 12.6946 19.4929 12.5071C19.3054 12.3196 19.2 12.0652 19.2 11.8C19.2 11.5348 19.3054 11.2804 19.4929 11.0929C19.6804 10.9054 19.9348 10.8 20.2 10.8ZM16 12C17.0609 12 18.0783 12.4214 18.8284 13.1716C19.5786 13.9217 20 14.9391 20 16C20 17.0609 19.5786 18.0783 18.8284 18.8284C18.0783 19.5786 17.0609 20 16 20C14.9391 20 13.9217 19.5786 13.1716 18.8284C12.4214 18.0783 12 17.0609 12 16C12 14.9391 12.4214 13.9217 13.1716 13.1716C13.9217 12.4214 14.9391 12 16 12ZM16 13.6C15.3635 13.6 14.753 13.8529 14.3029 14.3029C13.8529 14.753 13.6 15.3635 13.6 16C13.6 16.6365 13.8529 17.247 14.3029 17.6971C14.753 18.1471 15.3635 18.4 16 18.4C16.6365 18.4 17.247 18.1471 17.6971 17.6971C18.1471 17.247 18.4 16.6365 18.4 16C18.4 15.3635 18.1471 14.753 17.6971 14.3029C17.247 13.8529 16.6365 13.6 16 13.6Z" fill="#74787C"/>
</svg>
