<svg width="150" height="72" viewBox="0 0 150 72" fill="none" xmlns="http://www.w3.org/2000/svg">
<path d="M41.3382 30.3644C45.2676 34.4675 51.7208 40.6513 60.2736 42.6734C58.6744 29.7475 49.5055 17.5351 37.6782 13.6051C52.6067 17.0144 64.8197 32.1745 64.5312 47.085C64.7242 53.2496 65.4942 62.2266 65.8987 59.2788C73.1021 5.72553 48.4655 20.5009 34.7308 0.274689C34.6152 0.105686 34.508 0.0252151 34.4104 0.0252151C32.782 0.0247917 33.7593 22.4042 41.3382 30.3644Z" fill="url(#paint0_radial_74_951)"/>
<path d="M4.68033 16.2251C2.69403 16.9095 2.65125 16.9057 3.95392 16.9019C7.4894 16.8911 20.9348 16.8807 32.3229 30.6336C36.6765 35.8926 40.7605 45.2161 59.966 45.0623C41.7621 37.2414 42.2045 32.8686 36.0594 25.9528C31.7583 21.106 24.2034 14.6278 13.7935 14.6269C10.9635 14.6265 7.92483 15.1049 4.68033 16.2251Z" fill="url(#paint1_radial_74_951)"/>
<path d="M20.5022 8.24215C20.5022 10.997 22.7361 13.2319 25.4723 13.2319C28.2263 13.2319 30.4606 10.997 30.4606 8.24215C30.4606 5.48729 28.2263 3.2532 25.4723 3.2532C22.7361 3.2532 20.5022 5.48729 20.5022 8.24215Z" fill="url(#paint2_radial_74_951)"/>
<path d="M7.14933 40.8224C2.16356 40.8224 0.0626877 43.2056 0.0626877 46.5922C0.0626877 48.9127 1.06611 50.543 3.0414 51.3581C1.09724 52.1735 0 53.804 0 56.2187C0 59.5113 2.03819 61.9883 7.0553 61.9883H17.7795V58.288H7.0553C4.89174 58.288 3.85676 57.2848 3.85676 55.623C3.85676 53.8984 4.95442 53.0517 7.08664 53.0517H17.5914V49.6963H7.18089C5.04824 49.6963 3.951 48.9127 3.951 47.1879C3.951 45.5572 4.92287 44.5226 7.14933 44.5226H17.748V40.8224H7.14933Z" fill="url(#paint3_linear_74_951)"/>
<path d="M28.7837 45.4318C24.3621 45.4318 21.6028 48.1284 21.6028 53.7099C21.6028 59.2919 24.3621 61.9883 28.7837 61.9883H37.313V58.7584H29.0971C26.2124 58.7584 24.958 57.2848 24.958 53.7099C24.958 50.1353 26.2124 48.6299 29.0971 48.6299H37.313V45.4318H28.7837Z" fill="url(#paint4_linear_74_951)"/>
<path d="M47.6588 45.4318C43.2374 45.4318 40.4779 48.1284 40.4779 53.7099C40.4779 59.2919 43.2374 61.9883 47.6588 61.9883H51.1394C55.5295 61.9883 58.3201 59.2919 58.3201 53.7099C58.3201 48.1284 55.5295 45.4318 51.1394 45.4318H47.6588ZM43.8332 53.7099C43.8332 50.1353 45.0873 48.6299 47.9722 48.6299H50.8258C53.6791 48.6299 54.9648 50.1353 54.9648 53.7099C54.9648 57.2848 53.6791 58.7584 50.8258 58.7584H47.9722C45.0873 58.7584 43.8332 57.2848 43.8332 53.7099Z" fill="url(#paint5_linear_74_951)"/>
<path d="M75.2817 45.4318C71.4245 45.4318 69.8881 47.2819 69.8881 50.2606C69.8881 52.8008 71.0169 55.0897 75.595 55.0897H79.5148C81.1767 55.0897 81.8664 55.623 81.8664 56.94C81.8664 58.2256 81.2391 58.7584 79.7027 58.7584H70.0761V61.9883H79.7027C83.5908 61.9883 85.1272 59.9192 85.1272 56.9714C85.1272 54.3999 83.9673 52.299 79.3892 52.299H75.5009C73.6508 52.299 73.1491 51.6718 73.1491 50.5114C73.1491 49.2572 73.7762 48.6299 75.3126 48.6299H84.469V45.4318H75.2817Z" fill="url(#paint6_linear_74_951)"/>
<path d="M89.6411 41.5124V45.4318H87.3833V48.6299H89.6411V56.2812C89.6411 60.6087 91.1147 61.9883 94.5326 61.9883H97.5116V58.9469H95.2226C93.6548 58.9469 92.9962 58.3196 92.9962 56.4695V48.6299H97.5747V45.4318H92.9962V41.5124H89.6411Z" fill="url(#paint7_linear_74_951)"/>
<path d="M101.461 45.4318V48.6299H111.371C113.189 48.6299 113.911 49.6338 113.911 50.9193V52.1735H106.04C101.963 52.1735 100.458 53.9293 100.458 56.94C100.458 60.0755 102.089 61.9883 106.008 61.9883H113.753C116.544 61.9883 117.171 61.0478 117.171 58.6646V50.8879C117.171 47.7523 115.541 45.4318 111.402 45.4318H101.461ZM103.719 56.7516C103.719 55.5289 104.347 54.8076 106.102 54.8076H113.911V57.9121C113.911 58.5074 113.66 58.7584 113.001 58.7584H106.04C104.378 58.7584 103.719 57.9748 103.719 56.7516Z" fill="url(#paint8_linear_74_951)"/>
<path d="M122.469 41.5124V45.4318H120.212V48.6299H122.469V56.2812C122.469 60.6087 123.943 61.9883 127.361 61.9883H130.34V58.9469H128.051C126.483 58.9469 125.825 58.3196 125.825 56.4695V48.6299H130.403V45.4318H125.825V41.5124H122.469Z" fill="url(#paint9_linear_74_951)"/>
<path d="M139.056 45.4318C134.917 45.4318 133.287 47.7523 133.287 50.8879V56.5324C133.287 59.6682 134.917 61.9883 139.056 61.9883H149.185V58.7584H139.056C137.237 58.7584 136.516 57.7867 136.516 56.4695V55.2782H144.387C148.463 55.2782 150 53.5532 150 50.5114C150 47.3133 148.338 45.4318 144.418 45.4318H139.056ZM136.516 50.9193C136.516 49.6338 137.237 48.6299 139.056 48.6299H144.387C146.018 48.6299 146.739 49.4455 146.739 50.7001C146.739 51.9227 146.08 52.6754 144.293 52.6754H136.516V50.9193Z" fill="url(#paint10_linear_74_951)"/>
<path d="M117.647 67.1035L116.799 67.3435C116.746 67.2022 116.667 67.0648 116.563 66.9315C116.462 66.7955 116.323 66.6834 116.147 66.5954C115.971 66.5074 115.746 66.4634 115.471 66.4634C115.095 66.4634 114.782 66.5501 114.531 66.7234C114.283 66.8941 114.159 67.1115 114.159 67.3755C114.159 67.6102 114.244 67.7956 114.415 67.9316C114.586 68.0676 114.852 68.1809 115.215 68.2716L116.127 68.4956C116.677 68.629 117.086 68.833 117.355 69.1077C117.625 69.3797 117.759 69.7304 117.759 70.1598C117.759 70.5118 117.658 70.8265 117.455 71.1039C117.255 71.3813 116.975 71.6 116.615 71.76C116.255 71.92 115.837 72 115.359 72C114.732 72 114.214 71.864 113.803 71.592C113.392 71.3199 113.132 70.9225 113.023 70.3998L113.919 70.1758C114.004 70.5065 114.166 70.7545 114.403 70.9199C114.643 71.0852 114.956 71.1679 115.343 71.1679C115.783 71.1679 116.133 71.0746 116.391 70.8879C116.653 70.6985 116.783 70.4718 116.783 70.2078C116.783 69.9945 116.709 69.8158 116.559 69.6718C116.41 69.5251 116.181 69.4157 115.871 69.3437L114.847 69.1037C114.284 68.9703 113.871 68.7637 113.607 68.4836C113.346 68.2009 113.215 67.8476 113.215 67.4235C113.215 67.0768 113.312 66.7701 113.507 66.5034C113.704 66.2367 113.972 66.0274 114.311 65.8754C114.652 65.7233 115.039 65.6473 115.471 65.6473C116.079 65.6473 116.557 65.7807 116.903 66.0474C117.253 66.3141 117.501 66.6661 117.647 67.1035Z" fill="#767779"/>
<path d="M107.649 68.1756V71.872H106.705V65.7273H107.617V66.6874H107.697C107.841 66.3754 108.06 66.1247 108.353 65.9354C108.647 65.7433 109.026 65.6473 109.49 65.6473C109.906 65.6473 110.27 65.7327 110.582 65.9034C110.894 66.0714 111.136 66.3274 111.31 66.6714C111.483 67.0128 111.57 67.4449 111.57 67.9676V71.872H110.626V68.0316C110.626 67.5489 110.5 67.1728 110.25 66.9035C109.999 66.6314 109.655 66.4954 109.218 66.4954C108.916 66.4954 108.647 66.5608 108.409 66.6914C108.175 66.8221 107.989 67.0128 107.853 67.2635C107.717 67.5142 107.649 67.8182 107.649 68.1756Z" fill="#767779"/>
<path d="M102.48 72C101.925 72 101.438 71.868 101.02 71.604C100.604 71.3399 100.278 70.9706 100.044 70.4958C99.8116 70.0211 99.6956 69.4664 99.6956 68.8317C99.6956 68.1916 99.8116 67.6329 100.044 67.1555C100.278 66.6781 100.604 66.3074 101.02 66.0434C101.438 65.7794 101.925 65.6473 102.48 65.6473C103.035 65.6473 103.52 65.7794 103.936 66.0434C104.355 66.3074 104.68 66.6781 104.912 67.1555C105.147 67.6329 105.264 68.1916 105.264 68.8317C105.264 69.4664 105.147 70.0211 104.912 70.4958C104.68 70.9706 104.355 71.3399 103.936 71.604C103.52 71.868 103.035 72 102.48 72ZM102.48 71.1519C102.901 71.1519 103.248 71.0439 103.52 70.8279C103.792 70.6119 103.993 70.3278 104.124 69.9758C104.255 69.6237 104.32 69.2424 104.32 68.8317C104.32 68.421 104.255 68.0383 104.124 67.6835C103.993 67.3288 103.792 67.0421 103.52 66.8235C103.248 66.6048 102.901 66.4954 102.48 66.4954C102.058 66.4954 101.712 66.6048 101.44 66.8235C101.168 67.0421 100.966 67.3288 100.836 67.6835C100.705 68.0383 100.64 68.421 100.64 68.8317C100.64 69.2424 100.705 69.6237 100.836 69.9758C100.966 70.3278 101.168 70.6119 101.44 70.8279C101.712 71.0439 102.058 71.1519 102.48 71.1519Z" fill="#767779"/>
<path d="M97.3103 71.872V65.7273H98.2544V71.872H97.3103ZM97.7904 64.7032C97.6063 64.7032 97.4477 64.6406 97.3143 64.5152C97.1836 64.3899 97.1183 64.2392 97.1183 64.0632C97.1183 63.8871 97.1836 63.7365 97.3143 63.6111C97.4477 63.4858 97.6063 63.4231 97.7904 63.4231C97.9744 63.4231 98.1317 63.4858 98.2624 63.6111C98.3958 63.7365 98.4624 63.8871 98.4624 64.0632C98.4624 64.2392 98.3958 64.3899 98.2624 64.5152C98.1317 64.6406 97.9744 64.7032 97.7904 64.7032Z" fill="#767779"/>
<path d="M95.8901 65.7273V66.5274H92.7058V65.7273H95.8901ZM93.6339 64.2551H94.578V70.1117C94.578 70.3784 94.6167 70.5784 94.694 70.7118C94.774 70.8425 94.8754 70.9305 94.998 70.9758C95.1234 71.0185 95.2554 71.0398 95.3941 71.0398C95.4981 71.0398 95.5834 71.0345 95.6501 71.0238C95.7168 71.0105 95.7701 70.9998 95.8101 70.9918L96.0022 71.8399C95.9381 71.8639 95.8488 71.8879 95.7341 71.9119C95.6194 71.9386 95.4741 71.9519 95.2981 71.9519C95.0314 71.9519 94.77 71.8946 94.514 71.7799C94.2606 71.6652 94.05 71.4905 93.8819 71.2558C93.7166 71.0212 93.6339 70.7251 93.6339 70.3678V64.2551Z" fill="#767779"/>
<path d="M90.5446 69.3597V65.7273H91.4887V71.8719H90.5446V70.8318H90.4806C90.3366 71.1439 90.1126 71.4092 89.8086 71.6279C89.5045 71.8439 89.1205 71.9519 88.6564 71.9519C88.2724 71.9519 87.931 71.8679 87.6323 71.6999C87.3336 71.5292 87.099 71.2732 86.9283 70.9318C86.7576 70.5878 86.6722 70.1544 86.6722 69.6317V65.7273H87.6163V69.5677C87.6163 70.0157 87.7417 70.3731 87.9924 70.6398C88.2457 70.9065 88.5684 71.0398 88.9605 71.0398C89.1952 71.0398 89.4339 70.9798 89.6766 70.8598C89.9219 70.7398 90.1273 70.5558 90.2926 70.3078C90.4606 70.0597 90.5446 69.7437 90.5446 69.3597Z" fill="#767779"/>
<path d="M84.9431 63.6792V71.872H83.999V63.6792H84.9431Z" fill="#767779"/>
<path d="M79.7735 72C79.2188 72 78.7321 71.868 78.3134 71.604C77.8974 71.3399 77.572 70.9706 77.3373 70.4958C77.1053 70.0211 76.9893 69.4664 76.9893 68.8317C76.9893 68.1916 77.1053 67.6329 77.3373 67.1555C77.572 66.6781 77.8974 66.3074 78.3134 66.0434C78.7321 65.7794 79.2188 65.6473 79.7735 65.6473C80.3283 65.6473 80.8137 65.7794 81.2297 66.0434C81.6484 66.3074 81.9738 66.6781 82.2058 67.1555C82.4405 67.6329 82.5578 68.1916 82.5578 68.8317C82.5578 69.4664 82.4405 70.0211 82.2058 70.4958C81.9738 70.9706 81.6484 71.3399 81.2297 71.604C80.8137 71.868 80.3283 72 79.7735 72ZM79.7735 71.1519C80.1949 71.1519 80.5416 71.0439 80.8137 70.8279C81.0857 70.6119 81.287 70.3278 81.4177 69.9758C81.5484 69.6237 81.6137 69.2424 81.6137 68.8317C81.6137 68.421 81.5484 68.0383 81.4177 67.6835C81.287 67.3288 81.0857 67.0421 80.8137 66.8235C80.5416 66.6048 80.1949 66.4954 79.7735 66.4954C79.3522 66.4954 79.0055 66.6048 78.7334 66.8235C78.4614 67.0421 78.2601 67.3288 78.1294 67.6835C77.9987 68.0383 77.9334 68.421 77.9334 68.8317C77.9334 69.2424 77.9987 69.6237 78.1294 69.9758C78.2601 70.3278 78.4614 70.6119 78.7334 70.8279C79.0055 71.0439 79.3522 71.1519 79.7735 71.1519Z" fill="#767779"/>
<path d="M75.7441 67.1035L74.896 67.3435C74.8427 67.2022 74.764 67.0648 74.66 66.9315C74.5587 66.7955 74.42 66.6834 74.244 66.5954C74.0679 66.5074 73.8426 66.4634 73.5679 66.4634C73.1918 66.4634 72.8785 66.5501 72.6278 66.7234C72.3798 66.8941 72.2557 67.1115 72.2557 67.3755C72.2557 67.6102 72.3411 67.7956 72.5118 67.9316C72.6825 68.0676 72.9492 68.1809 73.3119 68.2716L74.2239 68.4956C74.7733 68.629 75.1827 68.833 75.4521 69.1077C75.7214 69.3797 75.8561 69.7304 75.8561 70.1598C75.8561 70.5118 75.7548 70.8265 75.5521 71.1039C75.3521 71.3813 75.072 71.6 74.712 71.76C74.352 71.92 73.9333 72 73.4559 72C72.8291 72 72.3104 71.864 71.8997 71.592C71.489 71.3199 71.229 70.9225 71.1196 70.3998L72.0157 70.1758C72.1011 70.5065 72.2624 70.7545 72.4998 70.9199C72.7398 71.0852 73.0532 71.1679 73.4399 71.1679C73.8799 71.1679 74.2293 71.0746 74.488 70.8879C74.7493 70.6985 74.88 70.4718 74.88 70.2078C74.88 69.9945 74.8053 69.8158 74.656 69.6718C74.5066 69.5251 74.2773 69.4157 73.9679 69.3437L72.9438 69.1037C72.3811 68.9703 71.9677 68.7637 71.7037 68.4836C71.4423 68.2009 71.3116 67.8476 71.3116 67.4235C71.3116 67.0768 71.409 66.7701 71.6037 66.5034C71.801 66.2367 72.0691 66.0274 72.4078 65.8754C72.7491 65.7233 73.1358 65.6473 73.5679 65.6473C74.1759 65.6473 74.6533 65.7807 75 66.0474C75.3494 66.3141 75.5974 66.6661 75.7441 67.1035Z" fill="#767779"/>
<defs>
<radialGradient id="paint0_radial_74_951" cx="0" cy="0" r="1" gradientUnits="userSpaceOnUse" gradientTransform="translate(69.4389 32.816) scale(69.0812 69.0812)">
<stop stop-color="#80CC28"/>
<stop offset="0.584963" stop-color="#27963C"/>
<stop offset="1" stop-color="#27963C"/>
</radialGradient>
<radialGradient id="paint1_radial_74_951" cx="0" cy="0" r="1" gradientUnits="userSpaceOnUse" gradientTransform="translate(69.4398 32.816) scale(69.0811 69.0811)">
<stop stop-color="#80CC28"/>
<stop offset="0.584963" stop-color="#27963C"/>
<stop offset="1" stop-color="#27963C"/>
</radialGradient>
<radialGradient id="paint2_radial_74_951" cx="0" cy="0" r="1" gradientUnits="userSpaceOnUse" gradientTransform="translate(25.6223 26.2399) scale(69.0819 69.0819)">
<stop stop-color="#80CC28"/>
<stop offset="0.584963" stop-color="#27963C"/>
<stop offset="1" stop-color="#27963C"/>
</radialGradient>
<linearGradient id="paint3_linear_74_951" x1="-1.33423e-05" y1="51.4054" x2="17.7795" y2="51.4054" gradientUnits="userSpaceOnUse">
<stop stop-color="#80CC28"/>
<stop offset="0.276997" stop-color="#27963C"/>
<stop offset="1" stop-color="#27963C"/>
</linearGradient>
<linearGradient id="paint4_linear_74_951" x1="21.6029" y1="53.71" x2="37.3128" y2="53.71" gradientUnits="userSpaceOnUse">
<stop stop-color="#80CC28"/>
<stop offset="0.276997" stop-color="#27963C"/>
<stop offset="1" stop-color="#27963C"/>
</linearGradient>
<linearGradient id="paint5_linear_74_951" x1="40.478" y1="53.71" x2="58.3202" y2="53.71" gradientUnits="userSpaceOnUse">
<stop stop-color="#80CC28"/>
<stop offset="0.276997" stop-color="#27963C"/>
<stop offset="1" stop-color="#27963C"/>
</linearGradient>
<linearGradient id="paint6_linear_74_951" x1="69.888" y1="53.71" x2="85.1274" y2="53.71" gradientUnits="userSpaceOnUse">
<stop stop-color="#80CC28"/>
<stop offset="0.276997" stop-color="#27963C"/>
<stop offset="1" stop-color="#27963C"/>
</linearGradient>
<linearGradient id="paint7_linear_74_951" x1="87.3834" y1="51.7503" x2="97.5746" y2="51.7503" gradientUnits="userSpaceOnUse">
<stop stop-color="#80CC28"/>
<stop offset="0.276997" stop-color="#27963C"/>
<stop offset="1" stop-color="#27963C"/>
</linearGradient>
<linearGradient id="paint8_linear_74_951" x1="100.458" y1="53.71" x2="117.171" y2="53.71" gradientUnits="userSpaceOnUse">
<stop stop-color="#80CC28"/>
<stop offset="0.276997" stop-color="#27963C"/>
<stop offset="1" stop-color="#27963C"/>
</linearGradient>
<linearGradient id="paint9_linear_74_951" x1="120.212" y1="51.7503" x2="130.403" y2="51.7503" gradientUnits="userSpaceOnUse">
<stop stop-color="#80CC28"/>
<stop offset="0.276997" stop-color="#27963C"/>
<stop offset="1" stop-color="#27963C"/>
</linearGradient>
<linearGradient id="paint10_linear_74_951" x1="133.287" y1="53.71" x2="150" y2="53.71" gradientUnits="userSpaceOnUse">
<stop stop-color="#80CC28"/>
<stop offset="0.276997" stop-color="#27963C"/>
<stop offset="1" stop-color="#27963C"/>
</linearGradient>
</defs>
</svg>
