<svg width="80" height="80" viewBox="0 0 80 80" fill="none" xmlns="http://www.w3.org/2000/svg">
<circle cx="40" cy="40" r="40" fill="white"/>
<path d="M50.4525 44.7301L46.7762 44.3104C46.344 44.2596 45.9058 44.3075 45.4947 44.4504C45.0836 44.5933 44.7102 44.8275 44.4026 45.1354L41.7394 47.7985C37.6309 45.7085 34.2914 42.3689 32.2013 38.2604L34.8789 35.5828C35.5013 34.9605 35.8053 34.0921 35.7039 33.2092L35.2842 29.5618C35.2024 28.8556 34.8637 28.2042 34.3325 27.7318C33.8013 27.2593 33.1149 26.9988 32.404 27H29.9C28.2645 27 26.904 28.3605 27.0053 29.996C27.7724 42.3565 37.6579 52.2274 50.0038 52.9945C51.6393 53.0959 52.9999 51.7353 52.9999 50.0998V47.5959C53.0143 46.1341 51.9143 44.9038 50.4525 44.7301Z" fill="#27963C"/>
</svg>
