<svg width="24" height="24" viewBox="0 0 24 24" fill="none" xmlns="http://www.w3.org/2000/svg">
<path fill-rule="evenodd" clip-rule="evenodd" d="M22.75 7.99999C22.75 8.1989 22.671 8.38967 22.5303 8.53032C22.3897 8.67097 22.1989 8.74999 22 8.74999H17C16.8011 8.74999 16.6103 8.67097 16.4697 8.53032C16.329 8.38967 16.25 8.1989 16.25 7.99999C16.25 7.80108 16.329 7.61031 16.4697 7.46966C16.6103 7.32901 16.8011 7.24999 17 7.24999H22C22.1989 7.24999 22.3897 7.32901 22.5303 7.46966C22.671 7.61031 22.75 7.80108 22.75 7.99999ZM22.75 12.5C22.75 12.6989 22.671 12.8897 22.5303 13.0303C22.3897 13.171 22.1989 13.25 22 13.25H18C17.8011 13.25 17.6103 13.171 17.4697 13.0303C17.329 12.8897 17.25 12.6989 17.25 12.5C17.25 12.3011 17.329 12.1103 17.4697 11.9697C17.6103 11.829 17.8011 11.75 18 11.75H22C22.1989 11.75 22.3897 11.829 22.5303 11.9697C22.671 12.1103 22.75 12.3011 22.75 12.5ZM13.76 7.29199L14.197 7.72799C14.932 8.46399 15.532 9.06399 15.942 9.58499C16.362 10.119 16.676 10.683 16.676 11.349C16.676 11.722 16.6 12.09 16.453 12.432C16.19 13.044 15.678 13.438 15.081 13.762C14.498 14.079 13.71 14.392 12.743 14.777L12.553 14.853C11.94 15.097 11.779 15.169 11.656 15.267C11.5475 15.3538 11.4537 15.4575 11.378 15.574C11.293 15.707 11.238 15.874 11.058 16.508L11.048 16.543C10.927 16.971 10.821 17.343 10.708 17.632C10.593 17.925 10.427 18.254 10.114 18.484C9.75377 18.748 9.30621 18.8643 8.86301 18.809C8.47701 18.761 8.17201 18.555 7.92801 18.355C7.64098 18.1052 7.36505 17.843 7.10101 17.569L6.04101 16.509L3.87701 18.672C3.73484 18.8045 3.54679 18.8766 3.35249 18.8732C3.15819 18.8697 2.97281 18.791 2.83539 18.6536C2.69798 18.5162 2.61927 18.3308 2.61584 18.1365C2.61241 17.9422 2.68453 17.7542 2.81701 17.612L4.98001 15.448L3.92001 14.388C3.64602 14.1236 3.38376 13.8474 3.13401 13.56C2.93401 13.317 2.72801 13.012 2.68001 12.626C2.625 12.1831 2.74126 11.736 3.00501 11.376C3.23501 11.062 3.56401 10.896 3.85701 10.781C4.14501 10.668 4.51801 10.561 4.94701 10.441L4.98101 10.431C5.61501 10.251 5.78101 10.195 5.91501 10.111C6.03155 10.0353 6.1352 9.94147 6.22201 9.83299C6.32001 9.70999 6.39201 9.54899 6.63601 8.93699L6.71201 8.74499C7.09601 7.77899 7.41002 6.99099 7.72702 6.40799C8.05101 5.81099 8.44501 5.29899 9.05701 5.03599C9.39919 4.8891 9.76764 4.81323 10.14 4.81299C10.806 4.81299 11.37 5.12699 11.904 5.54699C12.425 5.95699 13.024 6.55699 13.76 7.29199ZM8.13701 16.483L6.58001 14.927L6.57201 14.917L6.56301 14.909L5.00701 13.353C4.65901 13.005 4.43801 12.783 4.29301 12.607C4.24494 12.5521 4.20302 12.492 4.16801 12.428C4.164 12.3733 4.17805 12.3189 4.20801 12.273C4.26997 12.2339 4.33603 12.2017 4.40501 12.177C4.61701 12.094 4.91901 12.007 5.39101 11.874L5.47901 11.849C5.98301 11.706 6.38001 11.594 6.72201 11.375C6.97948 11.21 7.20817 11.0039 7.39901 10.765C7.65101 10.447 7.80301 10.063 7.99701 9.57599L8.08802 9.34599C8.49502 8.32299 8.77701 7.61899 9.04601 7.12399C9.31201 6.63399 9.50001 6.47899 9.65001 6.41399C9.80589 6.34866 9.97301 6.31435 10.142 6.31299C10.306 6.31299 10.539 6.38099 10.977 6.72599C11.42 7.07399 11.957 7.60899 12.736 8.38799L13.102 8.75399C13.881 9.53299 14.416 10.07 14.764 10.512C15.109 10.951 15.177 11.184 15.177 11.348C15.177 11.517 15.142 11.685 15.075 11.84C15.011 11.99 14.856 12.178 14.366 12.444C13.871 12.713 13.167 12.994 12.144 13.402L11.914 13.493C11.426 13.687 11.044 13.839 10.725 14.091C10.4861 14.2818 10.28 14.5105 10.115 14.768C9.89601 15.11 9.78401 15.507 9.64101 16.011L9.61601 16.099C9.48202 16.571 9.39601 16.873 9.31301 17.085C9.28833 17.154 9.25613 17.22 9.21701 17.282C9.17113 17.3119 9.11667 17.326 9.06202 17.322C8.99762 17.287 8.93725 17.2451 8.88201 17.197C8.62356 16.9698 8.375 16.7316 8.13701 16.483Z" fill="#27963C"/>
<path d="M22 17.75C22.1989 17.75 22.3897 17.671 22.5303 17.5303C22.671 17.3897 22.75 17.1989 22.75 17C22.75 16.8011 22.671 16.6103 22.5303 16.4697C22.3897 16.329 22.1989 16.25 22 16.25H13C12.8011 16.25 12.6103 16.329 12.4697 16.4697C12.329 16.6103 12.25 16.8011 12.25 17C12.25 17.1989 12.329 17.3897 12.4697 17.5303C12.6103 17.671 12.8011 17.75 13 17.75H22Z" fill="#27963C"/>
</svg>
