<svg width="200" height="96" viewBox="0 0 200 96" fill="none" xmlns="http://www.w3.org/2000/svg">
<path d="M55.1176 40.4621C60.3568 45.9328 68.9611 54.1779 80.3648 56.874C78.2326 39.6395 66.0074 23.3563 50.2376 18.1163C70.1423 22.662 86.4263 42.8755 86.0417 62.7562C86.299 70.9756 87.3257 82.945 87.865 79.0146C97.4695 7.61019 64.6207 27.3107 46.3078 0.3424C46.1536 0.117065 46.0107 0.00977325 45.8805 0.00977325C43.7093 0.00920105 45.0125 29.8484 55.1176 40.4621Z" fill="white"/>
<path d="M6.2404 21.6052C3.592 22.5178 3.53496 22.5127 5.27185 22.5076C9.98583 22.4932 27.913 22.4794 43.0972 40.8166C48.902 47.8286 54.3474 60.2599 79.9546 60.0549C55.6827 49.627 56.2726 43.7965 48.0792 34.5755C42.3444 28.1131 32.2712 19.4755 18.3913 19.4743C14.6179 19.4738 10.5664 20.1117 6.2404 21.6052Z" fill="white"/>
<path d="M27.3363 10.9641C27.3363 14.6373 30.3148 17.6172 33.9631 17.6172C37.6351 17.6172 40.6142 14.6373 40.6142 10.9641C40.6142 7.29099 37.6351 4.31221 33.9631 4.31221C30.3148 4.31221 27.3363 7.29099 27.3363 10.9641Z" fill="white"/>
<path d="M9.53244 54.406C2.88475 54.406 0.0835836 57.5836 0.0835836 62.099C0.0835836 65.193 1.42148 67.3668 4.0552 68.4536C1.46299 69.5408 0 71.7148 0 74.9344C0 79.3245 2.71758 82.6272 9.40707 82.6272H23.706V77.6935H9.40707C6.52232 77.6935 5.14235 76.3559 5.14235 74.1401C5.14235 71.8407 6.6059 70.7118 9.44886 70.7118H23.4553V66.2378H9.57452C6.73099 66.2378 5.268 65.193 5.268 62.8934C5.268 60.7191 6.56383 59.3397 9.53244 59.3397H23.6639V54.406H9.53244Z" fill="white"/>
<path d="M38.3782 60.5519C32.4828 60.5519 28.8037 64.1474 28.8037 71.5894C28.8037 79.032 32.4828 82.6272 38.3782 82.6272H49.7506V78.3207H38.7961C34.9499 78.3207 33.2774 76.3559 33.2774 71.5894C33.2774 66.8232 34.9499 64.8161 38.7961 64.8161H49.7506V60.5519H38.3782Z" fill="white"/>
<path d="M63.5451 60.5519C57.6499 60.5519 53.9706 64.1474 53.9706 71.5894C53.9706 79.032 57.6499 82.6272 63.5451 82.6272H68.1859C74.0393 82.6272 77.7602 79.032 77.7602 71.5894C77.7602 64.1474 74.0393 60.5519 68.1859 60.5519H63.5451ZM58.4443 71.5894C58.4443 66.8232 60.1165 64.8161 63.963 64.8161H67.7677C71.5722 64.8161 73.2865 66.8232 73.2865 71.5894C73.2865 76.3559 71.5722 78.3207 67.7677 78.3207H63.963C60.1165 78.3207 58.4443 76.3559 58.4443 71.5894Z" fill="white"/>
<path d="M100.376 60.5519C95.2327 60.5519 93.1841 63.0187 93.1841 66.9904C93.1841 70.3772 94.6892 73.4291 100.793 73.4291H106.02C108.236 73.4291 109.155 74.1401 109.155 75.8962C109.155 77.6102 108.319 78.3207 106.27 78.3207H93.4348V82.6272H106.27C111.454 82.6272 113.503 79.8684 113.503 75.938C113.503 72.5094 111.956 69.7082 105.852 69.7082H100.668C98.2011 69.7082 97.5321 68.8718 97.5321 67.3247C97.5321 65.6525 98.3682 64.8161 100.417 64.8161H112.625V60.5519H100.376Z" fill="white"/>
<path d="M119.522 55.326V60.5519H116.511V64.8161H119.522V75.0177C119.522 80.7878 121.486 82.6272 126.044 82.6272H130.015V78.572H126.964C124.873 78.572 123.995 77.7356 123.995 75.2688V64.8161H130.1V60.5519H123.995V55.326H119.522Z" fill="white"/>
<path d="M135.282 60.5519V64.8161H148.494C150.919 64.8161 151.881 66.1545 151.881 67.8685V69.5408H141.386C135.951 69.5408 133.944 71.882 133.944 75.8962C133.944 80.0768 136.118 82.6272 141.345 82.6272H151.671C155.392 82.6272 156.229 81.3732 156.229 78.1956V67.8268C156.229 63.6459 154.055 60.5519 148.536 60.5519H135.282ZM138.293 75.6449C138.293 74.0147 139.129 73.053 141.47 73.053H151.881V77.1923C151.881 77.9861 151.546 78.3207 150.667 78.3207H141.386C139.171 78.3207 138.293 77.2759 138.293 75.6449Z" fill="white"/>
<path d="M163.293 55.326V60.5519H160.282V64.8161H163.293V75.0177C163.293 80.7878 165.257 82.6272 169.815 82.6272H173.787V78.572H170.734C168.645 78.572 167.766 77.7356 167.766 75.2688V64.8161H173.87V60.5519H167.766V55.326H163.293Z" fill="white"/>
<path d="M185.409 60.5519C179.89 60.5519 177.716 63.6459 177.716 67.8268V75.3526C177.716 79.5338 179.89 82.6272 185.409 82.6272H198.913V78.3207H185.409C182.983 78.3207 182.022 77.0251 182.022 75.2688V73.6804H192.516C197.951 73.6804 200 71.3805 200 67.3247C200 63.0605 197.784 60.5519 192.557 60.5519H185.409ZM182.022 67.8685C182.022 66.1545 182.983 64.8161 185.409 64.8161H192.516C194.69 64.8161 195.652 65.9035 195.652 67.5763C195.652 69.2064 194.774 70.21 192.391 70.21H182.022V67.8685Z" fill="white"/>
<path d="M143.533 90.8757V95.8042H142.274V87.6113H143.49V88.8914H143.597C143.789 88.4754 144.08 88.1411 144.471 87.8887C144.863 87.6327 145.367 87.5046 145.986 87.5046C146.541 87.5046 147.026 87.6184 147.442 87.846C147.858 88.07 148.182 88.4114 148.413 88.8701C148.644 89.3253 148.76 89.9013 148.76 90.5983V95.8042H147.501V90.6836C147.501 90.04 147.334 89.5386 147 89.1795C146.665 88.8168 146.207 88.6354 145.623 88.6354C145.222 88.6354 144.863 88.7225 144.546 88.8968C144.233 89.071 143.986 89.3253 143.805 89.6595C143.623 89.9938 143.533 90.3992 143.533 90.8757Z" fill="white"/>
<path d="M136.64 95.9748C135.9 95.9748 135.251 95.7988 134.693 95.4468C134.138 95.0948 133.704 94.6023 133.391 93.9693C133.082 93.3364 132.927 92.5967 132.927 91.7504C132.927 90.897 133.082 90.152 133.391 89.5155C133.704 88.879 134.138 88.3847 134.693 88.0327C135.251 87.6807 135.9 87.5046 136.64 87.5046C137.379 87.5046 138.027 87.6807 138.581 88.0327C139.14 88.3847 139.573 88.879 139.883 89.5155C140.196 90.152 140.352 90.897 140.352 91.7504C140.352 92.5967 140.196 93.3364 139.883 93.9693C139.573 94.6023 139.14 95.0948 138.581 95.4468C138.027 95.7988 137.379 95.9748 136.64 95.9748ZM136.64 94.8441C137.202 94.8441 137.664 94.7 138.027 94.412C138.389 94.124 138.658 93.7453 138.832 93.2759C139.006 92.8065 139.093 92.298 139.093 91.7504C139.093 91.2028 139.006 90.6925 138.832 90.2196C138.658 89.7466 138.389 89.3644 138.027 89.0728C137.664 88.7812 137.202 88.6354 136.64 88.6354C136.078 88.6354 135.616 88.7812 135.253 89.0728C134.89 89.3644 134.622 89.7466 134.448 90.2196C134.273 90.6925 134.186 91.2028 134.186 91.7504C134.186 92.298 134.273 92.8065 134.448 93.2759C134.622 93.7453 134.89 94.124 135.253 94.412C135.616 94.7 136.078 94.8441 136.64 94.8441Z" fill="white"/>
<path d="M129.747 95.804V87.6111H131.006V95.804H129.747ZM130.387 86.2457C130.142 86.2457 129.93 86.1621 129.752 85.995C129.578 85.8278 129.491 85.6269 129.491 85.3922C129.491 85.1575 129.578 84.9566 129.752 84.7895C129.93 84.6224 130.142 84.5388 130.387 84.5388C130.633 84.5388 130.842 84.6224 131.017 84.7895C131.194 84.9566 131.283 85.1575 131.283 85.3922C131.283 85.6269 131.194 85.8278 131.017 85.995C130.842 86.1621 130.633 86.2457 130.387 86.2457Z" fill="white"/>
<path d="M127.854 87.6111V88.6778H123.608V87.6111H127.854ZM124.845 85.6482H126.104V93.457C126.104 93.8126 126.156 94.0793 126.259 94.2571C126.365 94.4313 126.501 94.5487 126.664 94.6091C126.831 94.666 127.007 94.6945 127.192 94.6945C127.331 94.6945 127.445 94.6873 127.534 94.6731C127.622 94.6553 127.694 94.6411 127.747 94.6305L128.003 95.7612C127.918 95.7932 127.798 95.8252 127.646 95.8572C127.493 95.8928 127.299 95.9106 127.064 95.9106C126.709 95.9106 126.36 95.8341 126.019 95.6812C125.681 95.5283 125.4 95.2954 125.176 94.9825C124.955 94.6696 124.845 94.2749 124.845 93.7984V85.6482Z" fill="white"/>
<path d="M120.726 92.4542V87.6111H121.985V95.8039H120.726V94.4171H120.641C120.449 94.8332 120.15 95.187 119.745 95.4786C119.339 95.7666 118.827 95.9106 118.209 95.9106C117.697 95.9106 117.241 95.7986 116.843 95.5746C116.445 95.347 116.132 95.0056 115.904 94.5505C115.677 94.0918 115.563 93.5139 115.563 92.817V87.6111H116.822V92.7316C116.822 93.329 116.989 93.8055 117.323 94.1611C117.661 94.5167 118.091 94.6945 118.614 94.6945C118.927 94.6945 119.245 94.6145 119.569 94.4545C119.896 94.2944 120.17 94.0491 120.39 93.7184C120.614 93.3877 120.726 92.9663 120.726 92.4542Z" fill="white"/>
<path d="M113.257 84.8801V95.8039H111.999V84.8801H113.257Z" fill="white"/>
<path d="M106.365 95.9748C105.625 95.9748 104.976 95.7988 104.418 95.4468C103.863 95.0948 103.429 94.6023 103.116 93.9693C102.807 93.3364 102.652 92.5967 102.652 91.7504C102.652 90.897 102.807 90.152 103.116 89.5155C103.429 88.879 103.863 88.3847 104.418 88.0327C104.976 87.6807 105.625 87.5046 106.365 87.5046C107.104 87.5046 107.752 87.6807 108.306 88.0327C108.865 88.3847 109.298 88.879 109.608 89.5155C109.921 90.152 110.077 90.897 110.077 91.7504C110.077 92.5967 109.921 93.3364 109.608 93.9693C109.298 94.6023 108.865 95.0948 108.306 95.4468C107.752 95.7988 107.104 95.9748 106.365 95.9748ZM106.365 94.8441C106.927 94.8441 107.389 94.7 107.752 94.412C108.114 94.124 108.383 93.7453 108.557 93.2759C108.731 92.8065 108.818 92.298 108.818 91.7504C108.818 91.2028 108.731 90.6925 108.557 90.2196C108.383 89.7466 108.114 89.3644 107.752 89.0728C107.389 88.7812 106.927 88.6354 106.365 88.6354C105.803 88.6354 105.341 88.7812 104.978 89.0728C104.615 89.3644 104.347 89.7466 104.173 90.2196C103.998 90.6925 103.911 91.2028 103.911 91.7504C103.911 92.298 103.998 92.8065 104.173 93.2759C104.347 93.7453 104.615 94.124 104.978 94.412C105.341 94.7 105.803 94.8441 106.365 94.8441Z" fill="white"/>
<path d="M100.992 89.4462L99.8614 89.7662C99.7902 89.5777 99.6853 89.3946 99.5467 89.2168C99.4115 89.0355 99.2266 88.8861 98.9919 88.7688C98.7572 88.6514 98.4568 88.5928 98.0905 88.5928C97.5891 88.5928 97.1713 88.7083 96.837 88.9395C96.5063 89.167 96.341 89.4568 96.341 89.8089C96.341 90.1218 96.4548 90.3689 96.6824 90.5503C96.9099 90.7316 97.2655 90.8828 97.7491 91.0037L98.9653 91.3024C99.6978 91.4802 100.244 91.7522 100.603 92.1184C100.962 92.4812 101.141 92.9488 101.141 93.5213C101.141 93.9906 101.006 94.4102 100.736 94.7801C100.469 95.1499 100.096 95.4415 99.616 95.6548C99.1359 95.8682 98.5777 95.9748 97.9412 95.9748C97.1055 95.9748 96.4139 95.7935 95.8663 95.4308C95.3187 95.0681 94.972 94.5383 94.8262 93.8413L96.021 93.5426C96.1348 93.9835 96.3499 94.3142 96.6664 94.5347C96.9864 94.7552 97.4042 94.8654 97.9198 94.8654C98.5066 94.8654 98.9724 94.7409 99.3173 94.492C99.6658 94.2396 99.84 93.9373 99.84 93.5853C99.84 93.3008 99.7405 93.0625 99.5413 92.8705C99.3422 92.6749 99.0364 92.5292 98.6239 92.4331L97.2584 92.1131C96.5081 91.9353 95.957 91.6597 95.6049 91.2864C95.2564 90.9094 95.0822 90.4383 95.0822 89.8729C95.0822 89.4106 95.212 89.0017 95.4716 88.6461C95.7347 88.2905 96.0921 88.0114 96.5437 87.8087C96.9988 87.606 97.5144 87.5046 98.0905 87.5046C98.9013 87.5046 99.5378 87.6824 100 88.038C100.466 88.3936 100.797 88.863 100.992 89.4462Z" fill="white"/>
</svg>
