<svg width="32" height="32" viewBox="0 0 32 32" fill="none" xmlns="http://www.w3.org/2000/svg">
<rect x="0.5" y="0.5" width="31" height="31" fill="#202220" stroke="#74787C"/>
<path d="M21.6 10.328C20.8664 9.58732 19.9928 9.00001 19.03 8.60033C18.0672 8.20065 17.0344 7.99659 15.992 8.00004C11.624 8.00004 8.064 11.56 8.064 15.928C8.064 17.328 8.432 18.688 9.12 19.888L8 24L12.2 22.896C13.36 23.528 14.664 23.864 15.992 23.864C20.36 23.864 23.92 20.304 23.92 15.936C23.92 13.816 23.096 11.824 21.6 10.328ZM15.992 22.52C14.808 22.52 13.648 22.2 12.632 21.6L12.392 21.456L9.896 22.112L10.56 19.68L10.4 19.432C9.74203 18.3817 9.39274 17.1674 9.392 15.928C9.392 12.296 12.352 9.33604 15.984 9.33604C17.744 9.33604 19.4 10.024 20.64 11.272C21.2541 11.8831 21.7407 12.6101 22.0717 13.4107C22.4026 14.2113 22.5713 15.0697 22.568 15.936C22.584 19.568 19.624 22.52 15.992 22.52ZM19.608 17.592C19.408 17.496 18.432 17.016 18.256 16.944C18.072 16.88 17.944 16.848 17.808 17.04C17.672 17.24 17.296 17.688 17.184 17.816C17.072 17.952 16.952 17.968 16.752 17.864C16.552 17.768 15.912 17.552 15.16 16.88C14.568 16.352 14.176 15.704 14.056 15.504C13.944 15.304 14.04 15.2 14.144 15.096C14.232 15.008 14.344 14.864 14.44 14.752C14.536 14.64 14.576 14.552 14.64 14.424C14.704 14.288 14.672 14.176 14.624 14.08C14.576 13.984 14.176 13.008 14.016 12.608C13.856 12.224 13.688 12.272 13.568 12.264H13.184C13.048 12.264 12.84 12.312 12.656 12.512C12.48 12.712 11.968 13.192 11.968 14.168C11.968 15.144 12.68 16.088 12.776 16.216C12.872 16.352 14.176 18.352 16.16 19.208C16.632 19.416 17 19.536 17.288 19.624C17.76 19.776 18.192 19.752 18.536 19.704C18.92 19.648 19.712 19.224 19.872 18.76C20.04 18.296 20.04 17.904 19.984 17.816C19.928 17.728 19.808 17.688 19.608 17.592Z" fill="#74787C"/>
</svg>
